<mxfile host="app.diagrams.net" modified="2023-05-26T04:38:53.552Z" agent="Mozilla/5.0 (Windows NT 10.0; Win64; x64) AppleWebKit/537.36 (KHTML, like Gecko) Chrome/113.0.0.0 Safari/537.36 Edg/113.0.1774.50" etag="q5Mi9jy1t3o7uMnmcvsc" version="21.3.4" type="device">
  <diagram name="Page-1" id="9ZpZYmSknQzRdvx5r0Us">
    <mxGraphModel dx="1900" dy="1681" grid="1" gridSize="10" guides="1" tooltips="1" connect="1" arrows="1" fold="1" page="1" pageScale="1" pageWidth="850" pageHeight="1100" math="0" shadow="0">
      <root>
        <mxCell id="0" />
        <mxCell id="1" parent="0" />
        <mxCell id="9uxN7gj2U9bfbxpVHBOl-1" value="User" style="rounded=0;whiteSpace=wrap;html=1;" vertex="1" parent="1">
          <mxGeometry x="220" y="180" width="120" height="60" as="geometry" />
        </mxCell>
        <mxCell id="9uxN7gj2U9bfbxpVHBOl-2" value="user_id" style="ellipse;whiteSpace=wrap;html=1;fillColor=#ffe6cc;strokeColor=#d79b00;" vertex="1" parent="1">
          <mxGeometry x="-330" y="70" width="90" height="50" as="geometry" />
        </mxCell>
        <mxCell id="9uxN7gj2U9bfbxpVHBOl-3" value="" style="endArrow=none;html=1;rounded=0;entryX=1;entryY=1;entryDx=0;entryDy=0;exitX=0.25;exitY=0;exitDx=0;exitDy=0;" edge="1" parent="1" target="9uxN7gj2U9bfbxpVHBOl-2">
          <mxGeometry width="50" height="50" relative="1" as="geometry">
            <mxPoint x="-150" y="180" as="sourcePoint" />
            <mxPoint x="50" y="280" as="targetPoint" />
            <Array as="points" />
          </mxGeometry>
        </mxCell>
        <mxCell id="9uxN7gj2U9bfbxpVHBOl-5" value="Name" style="ellipse;whiteSpace=wrap;html=1;" vertex="1" parent="1">
          <mxGeometry x="170" y="50" width="90" height="50" as="geometry" />
        </mxCell>
        <mxCell id="9uxN7gj2U9bfbxpVHBOl-6" value="" style="endArrow=none;html=1;rounded=0;entryX=0.5;entryY=1;entryDx=0;entryDy=0;exitX=0.25;exitY=0;exitDx=0;exitDy=0;" edge="1" target="9uxN7gj2U9bfbxpVHBOl-5" parent="1" source="9uxN7gj2U9bfbxpVHBOl-1">
          <mxGeometry width="50" height="50" relative="1" as="geometry">
            <mxPoint x="220" y="180" as="sourcePoint" />
            <mxPoint x="540" y="270" as="targetPoint" />
            <Array as="points" />
          </mxGeometry>
        </mxCell>
        <mxCell id="9uxN7gj2U9bfbxpVHBOl-7" value="Email/Username" style="ellipse;whiteSpace=wrap;html=1;" vertex="1" parent="1">
          <mxGeometry x="270" y="50" width="100" height="50" as="geometry" />
        </mxCell>
        <mxCell id="9uxN7gj2U9bfbxpVHBOl-8" value="" style="endArrow=none;html=1;rounded=0;entryX=0.5;entryY=1;entryDx=0;entryDy=0;exitX=0.25;exitY=0;exitDx=0;exitDy=0;" edge="1" target="9uxN7gj2U9bfbxpVHBOl-7" parent="1" source="9uxN7gj2U9bfbxpVHBOl-1">
          <mxGeometry width="50" height="50" relative="1" as="geometry">
            <mxPoint x="310" y="180" as="sourcePoint" />
            <mxPoint x="630" y="270" as="targetPoint" />
            <Array as="points" />
          </mxGeometry>
        </mxCell>
        <mxCell id="9uxN7gj2U9bfbxpVHBOl-9" value="Password" style="ellipse;whiteSpace=wrap;html=1;" vertex="1" parent="1">
          <mxGeometry x="380" y="50" width="90" height="50" as="geometry" />
        </mxCell>
        <mxCell id="9uxN7gj2U9bfbxpVHBOl-10" value="" style="endArrow=none;html=1;rounded=0;entryX=0.24;entryY=0.956;entryDx=0;entryDy=0;entryPerimeter=0;" edge="1" target="9uxN7gj2U9bfbxpVHBOl-9" parent="1">
          <mxGeometry width="50" height="50" relative="1" as="geometry">
            <mxPoint x="250" y="180" as="sourcePoint" />
            <mxPoint x="390" y="110" as="targetPoint" />
            <Array as="points" />
          </mxGeometry>
        </mxCell>
        <mxCell id="9uxN7gj2U9bfbxpVHBOl-11" value="About" style="ellipse;whiteSpace=wrap;html=1;" vertex="1" parent="1">
          <mxGeometry x="420" y="100" width="90" height="50" as="geometry" />
        </mxCell>
        <mxCell id="9uxN7gj2U9bfbxpVHBOl-12" value="" style="endArrow=none;html=1;rounded=0;entryX=0;entryY=1;entryDx=0;entryDy=0;exitX=0.25;exitY=0;exitDx=0;exitDy=0;" edge="1" target="9uxN7gj2U9bfbxpVHBOl-11" parent="1" source="9uxN7gj2U9bfbxpVHBOl-1">
          <mxGeometry width="50" height="50" relative="1" as="geometry">
            <mxPoint x="310" y="230" as="sourcePoint" />
            <mxPoint x="780" y="320" as="targetPoint" />
            <Array as="points" />
          </mxGeometry>
        </mxCell>
        <mxCell id="9uxN7gj2U9bfbxpVHBOl-13" value="Post" style="whiteSpace=wrap;html=1;" vertex="1" parent="1">
          <mxGeometry x="570" y="280" width="120" height="60" as="geometry" />
        </mxCell>
        <mxCell id="9uxN7gj2U9bfbxpVHBOl-14" value="post_id" style="ellipse;whiteSpace=wrap;html=1;" vertex="1" parent="1">
          <mxGeometry x="670" y="150" width="80" height="50" as="geometry" />
        </mxCell>
        <mxCell id="9uxN7gj2U9bfbxpVHBOl-16" value="" style="endArrow=none;html=1;rounded=0;entryX=0.31;entryY=0.956;entryDx=0;entryDy=0;entryPerimeter=0;exitX=0.5;exitY=0;exitDx=0;exitDy=0;" edge="1" parent="1" source="9uxN7gj2U9bfbxpVHBOl-13" target="9uxN7gj2U9bfbxpVHBOl-14">
          <mxGeometry width="50" height="50" relative="1" as="geometry">
            <mxPoint x="410" y="330" as="sourcePoint" />
            <mxPoint x="460" y="280" as="targetPoint" />
          </mxGeometry>
        </mxCell>
        <mxCell id="9uxN7gj2U9bfbxpVHBOl-17" value="title" style="ellipse;whiteSpace=wrap;html=1;" vertex="1" parent="1">
          <mxGeometry x="550" y="150" width="80" height="50" as="geometry" />
        </mxCell>
        <mxCell id="9uxN7gj2U9bfbxpVHBOl-18" value="" style="endArrow=none;html=1;rounded=0;entryX=0.6;entryY=1.004;entryDx=0;entryDy=0;entryPerimeter=0;" edge="1" target="9uxN7gj2U9bfbxpVHBOl-17" parent="1">
          <mxGeometry width="50" height="50" relative="1" as="geometry">
            <mxPoint x="630" y="280" as="sourcePoint" />
            <mxPoint x="360" y="280" as="targetPoint" />
          </mxGeometry>
        </mxCell>
        <mxCell id="9uxN7gj2U9bfbxpVHBOl-19" value="content" style="ellipse;whiteSpace=wrap;html=1;" vertex="1" parent="1">
          <mxGeometry x="460" y="170" width="80" height="50" as="geometry" />
        </mxCell>
        <mxCell id="9uxN7gj2U9bfbxpVHBOl-20" value="" style="endArrow=none;html=1;rounded=0;entryX=0.6;entryY=1.004;entryDx=0;entryDy=0;entryPerimeter=0;exitX=0.5;exitY=0;exitDx=0;exitDy=0;" edge="1" target="9uxN7gj2U9bfbxpVHBOl-19" parent="1" source="9uxN7gj2U9bfbxpVHBOl-13">
          <mxGeometry width="50" height="50" relative="1" as="geometry">
            <mxPoint x="540" y="300" as="sourcePoint" />
            <mxPoint x="270" y="300" as="targetPoint" />
          </mxGeometry>
        </mxCell>
        <mxCell id="9uxN7gj2U9bfbxpVHBOl-21" value="user_id" style="ellipse;whiteSpace=wrap;html=1;fillColor=#ffe6cc;strokeColor=#d79b00;" vertex="1" parent="1">
          <mxGeometry x="390" y="200" width="80" height="50" as="geometry" />
        </mxCell>
        <mxCell id="9uxN7gj2U9bfbxpVHBOl-22" value="" style="endArrow=none;html=1;rounded=0;entryX=0.875;entryY=0.8;entryDx=0;entryDy=0;entryPerimeter=0;exitX=0.5;exitY=0;exitDx=0;exitDy=0;" edge="1" target="9uxN7gj2U9bfbxpVHBOl-21" parent="1" source="9uxN7gj2U9bfbxpVHBOl-13">
          <mxGeometry width="50" height="50" relative="1" as="geometry">
            <mxPoint x="470" y="330" as="sourcePoint" />
            <mxPoint x="200" y="330" as="targetPoint" />
          </mxGeometry>
        </mxCell>
        <mxCell id="9uxN7gj2U9bfbxpVHBOl-23" value="image" style="ellipse;whiteSpace=wrap;html=1;" vertex="1" parent="1">
          <mxGeometry x="750" y="180" width="80" height="50" as="geometry" />
        </mxCell>
        <mxCell id="9uxN7gj2U9bfbxpVHBOl-24" value="" style="endArrow=none;html=1;rounded=0;entryX=0.31;entryY=0.956;entryDx=0;entryDy=0;entryPerimeter=0;exitX=0.5;exitY=0;exitDx=0;exitDy=0;" edge="1" target="9uxN7gj2U9bfbxpVHBOl-23" parent="1" source="9uxN7gj2U9bfbxpVHBOl-13">
          <mxGeometry width="50" height="50" relative="1" as="geometry">
            <mxPoint x="710" y="310" as="sourcePoint" />
            <mxPoint x="540" y="310" as="targetPoint" />
          </mxGeometry>
        </mxCell>
        <mxCell id="9uxN7gj2U9bfbxpVHBOl-25" value="1 user can create many posts" style="rhombus;whiteSpace=wrap;html=1;" vertex="1" parent="1">
          <mxGeometry x="380" y="300" width="90" height="90" as="geometry" />
        </mxCell>
        <mxCell id="9uxN7gj2U9bfbxpVHBOl-26" value="" style="endArrow=none;html=1;rounded=0;entryX=0.623;entryY=0.977;entryDx=0;entryDy=0;entryPerimeter=0;exitX=0.147;exitY=0.322;exitDx=0;exitDy=0;exitPerimeter=0;" edge="1" parent="1" source="9uxN7gj2U9bfbxpVHBOl-25" target="9uxN7gj2U9bfbxpVHBOl-1">
          <mxGeometry width="50" height="50" relative="1" as="geometry">
            <mxPoint x="400" y="320" as="sourcePoint" />
            <mxPoint x="460" y="280" as="targetPoint" />
          </mxGeometry>
        </mxCell>
        <mxCell id="9uxN7gj2U9bfbxpVHBOl-27" value="" style="endArrow=none;html=1;rounded=0;entryX=0;entryY=0.5;entryDx=0;entryDy=0;exitX=0.849;exitY=0.313;exitDx=0;exitDy=0;exitPerimeter=0;" edge="1" parent="1" source="9uxN7gj2U9bfbxpVHBOl-25" target="9uxN7gj2U9bfbxpVHBOl-13">
          <mxGeometry width="50" height="50" relative="1" as="geometry">
            <mxPoint x="410" y="330" as="sourcePoint" />
            <mxPoint x="460" y="280" as="targetPoint" />
          </mxGeometry>
        </mxCell>
        <mxCell id="9uxN7gj2U9bfbxpVHBOl-28" value="1" style="text;html=1;align=center;verticalAlign=middle;resizable=0;points=[];autosize=1;strokeColor=none;fillColor=none;" vertex="1" parent="1">
          <mxGeometry x="345" y="258" width="30" height="30" as="geometry" />
        </mxCell>
        <mxCell id="9uxN7gj2U9bfbxpVHBOl-29" value="many" style="text;html=1;align=center;verticalAlign=middle;resizable=0;points=[];autosize=1;strokeColor=none;fillColor=none;" vertex="1" parent="1">
          <mxGeometry x="475" y="288" width="50" height="30" as="geometry" />
        </mxCell>
        <mxCell id="9uxN7gj2U9bfbxpVHBOl-31" value="Comment" style="whiteSpace=wrap;html=1;" vertex="1" parent="1">
          <mxGeometry x="510" y="530" width="120" height="60" as="geometry" />
        </mxCell>
        <mxCell id="9uxN7gj2U9bfbxpVHBOl-32" value="" style="endArrow=none;html=1;rounded=0;entryX=0.6;entryY=1.004;entryDx=0;entryDy=0;entryPerimeter=0;" edge="1" target="9uxN7gj2U9bfbxpVHBOl-33" parent="1">
          <mxGeometry width="50" height="50" relative="1" as="geometry">
            <mxPoint x="550" y="530" as="sourcePoint" />
            <mxPoint x="280" y="530" as="targetPoint" />
          </mxGeometry>
        </mxCell>
        <mxCell id="9uxN7gj2U9bfbxpVHBOl-33" value="Comment" style="ellipse;whiteSpace=wrap;html=1;" vertex="1" parent="1">
          <mxGeometry x="470" y="400" width="80" height="50" as="geometry" />
        </mxCell>
        <mxCell id="9uxN7gj2U9bfbxpVHBOl-36" value="comment_id" style="ellipse;whiteSpace=wrap;html=1;" vertex="1" parent="1">
          <mxGeometry x="560" y="390" width="80" height="50" as="geometry" />
        </mxCell>
        <mxCell id="9uxN7gj2U9bfbxpVHBOl-37" value="" style="endArrow=none;html=1;rounded=0;entryX=0.6;entryY=1.004;entryDx=0;entryDy=0;entryPerimeter=0;" edge="1" target="9uxN7gj2U9bfbxpVHBOl-36" parent="1">
          <mxGeometry width="50" height="50" relative="1" as="geometry">
            <mxPoint x="550" y="530" as="sourcePoint" />
            <mxPoint x="370" y="520" as="targetPoint" />
          </mxGeometry>
        </mxCell>
        <mxCell id="9uxN7gj2U9bfbxpVHBOl-40" value="post_id" style="ellipse;whiteSpace=wrap;html=1;fillColor=#dae8fc;strokeColor=#6c8ebf;" vertex="1" parent="1">
          <mxGeometry x="650" y="400" width="80" height="50" as="geometry" />
        </mxCell>
        <mxCell id="9uxN7gj2U9bfbxpVHBOl-41" value="" style="endArrow=none;html=1;rounded=0;entryX=0.6;entryY=1.004;entryDx=0;entryDy=0;entryPerimeter=0;" edge="1" target="9uxN7gj2U9bfbxpVHBOl-40" parent="1">
          <mxGeometry width="50" height="50" relative="1" as="geometry">
            <mxPoint x="550" y="530" as="sourcePoint" />
            <mxPoint x="460" y="530" as="targetPoint" />
          </mxGeometry>
        </mxCell>
        <mxCell id="9uxN7gj2U9bfbxpVHBOl-43" value="user_id" style="ellipse;whiteSpace=wrap;html=1;fillColor=#ffe6cc;strokeColor=#d79b00;" vertex="1" parent="1">
          <mxGeometry x="370" y="430" width="80" height="50" as="geometry" />
        </mxCell>
        <mxCell id="9uxN7gj2U9bfbxpVHBOl-44" value="" style="endArrow=none;html=1;rounded=0;entryX=0.875;entryY=0.8;entryDx=0;entryDy=0;entryPerimeter=0;exitX=0.347;exitY=-0.003;exitDx=0;exitDy=0;exitPerimeter=0;" edge="1" target="9uxN7gj2U9bfbxpVHBOl-43" parent="1" source="9uxN7gj2U9bfbxpVHBOl-31">
          <mxGeometry width="50" height="50" relative="1" as="geometry">
            <mxPoint x="620" y="540" as="sourcePoint" />
            <mxPoint x="180" y="560" as="targetPoint" />
          </mxGeometry>
        </mxCell>
        <mxCell id="9uxN7gj2U9bfbxpVHBOl-45" value="user can do many comments" style="rhombus;whiteSpace=wrap;html=1;" vertex="1" parent="1">
          <mxGeometry x="210" y="505" width="120" height="110" as="geometry" />
        </mxCell>
        <mxCell id="9uxN7gj2U9bfbxpVHBOl-46" value="" style="endArrow=none;html=1;rounded=0;exitX=0.5;exitY=0;exitDx=0;exitDy=0;" edge="1" parent="1" source="9uxN7gj2U9bfbxpVHBOl-45">
          <mxGeometry width="50" height="50" relative="1" as="geometry">
            <mxPoint x="270" y="520" as="sourcePoint" />
            <mxPoint x="270" y="240" as="targetPoint" />
          </mxGeometry>
        </mxCell>
        <mxCell id="9uxN7gj2U9bfbxpVHBOl-53" value="1" style="edgeLabel;html=1;align=center;verticalAlign=middle;resizable=0;points=[];" vertex="1" connectable="0" parent="9uxN7gj2U9bfbxpVHBOl-46">
          <mxGeometry x="0.1517" y="4" relative="1" as="geometry">
            <mxPoint as="offset" />
          </mxGeometry>
        </mxCell>
        <mxCell id="9uxN7gj2U9bfbxpVHBOl-51" value="" style="endArrow=none;html=1;rounded=0;exitX=1;exitY=0.5;exitDx=0;exitDy=0;entryX=0;entryY=0.5;entryDx=0;entryDy=0;" edge="1" parent="1" source="9uxN7gj2U9bfbxpVHBOl-45" target="9uxN7gj2U9bfbxpVHBOl-31">
          <mxGeometry width="50" height="50" relative="1" as="geometry">
            <mxPoint x="510" y="420" as="sourcePoint" />
            <mxPoint x="500" y="560" as="targetPoint" />
          </mxGeometry>
        </mxCell>
        <mxCell id="9uxN7gj2U9bfbxpVHBOl-54" value="many" style="text;html=1;align=center;verticalAlign=middle;resizable=0;points=[];autosize=1;strokeColor=none;fillColor=none;" vertex="1" parent="1">
          <mxGeometry x="375" y="558" width="50" height="30" as="geometry" />
        </mxCell>
        <mxCell id="9uxN7gj2U9bfbxpVHBOl-56" value="can have&amp;nbsp;" style="rhombus;whiteSpace=wrap;html=1;" vertex="1" parent="1">
          <mxGeometry x="990" y="520" width="80" height="80" as="geometry" />
        </mxCell>
        <mxCell id="9uxN7gj2U9bfbxpVHBOl-57" value="" style="endArrow=none;html=1;rounded=0;entryX=0;entryY=0.5;entryDx=0;entryDy=0;exitX=1;exitY=0.5;exitDx=0;exitDy=0;" edge="1" parent="1" source="9uxN7gj2U9bfbxpVHBOl-31" target="9uxN7gj2U9bfbxpVHBOl-56">
          <mxGeometry width="50" height="50" relative="1" as="geometry">
            <mxPoint x="680" y="510" as="sourcePoint" />
            <mxPoint x="730" y="460" as="targetPoint" />
          </mxGeometry>
        </mxCell>
        <mxCell id="9uxN7gj2U9bfbxpVHBOl-58" value="" style="endArrow=none;html=1;rounded=0;exitX=0.5;exitY=0;exitDx=0;exitDy=0;" edge="1" parent="1" source="9uxN7gj2U9bfbxpVHBOl-56">
          <mxGeometry width="50" height="50" relative="1" as="geometry">
            <mxPoint x="680" y="510" as="sourcePoint" />
            <mxPoint x="690" y="320" as="targetPoint" />
            <Array as="points">
              <mxPoint x="1030" y="320" />
            </Array>
          </mxGeometry>
        </mxCell>
        <mxCell id="9uxN7gj2U9bfbxpVHBOl-59" value="1" style="text;html=1;align=center;verticalAlign=middle;resizable=0;points=[];autosize=1;strokeColor=none;fillColor=none;" vertex="1" parent="1">
          <mxGeometry x="835" y="298" width="30" height="30" as="geometry" />
        </mxCell>
        <mxCell id="9uxN7gj2U9bfbxpVHBOl-60" value="many/n" style="text;html=1;align=center;verticalAlign=middle;resizable=0;points=[];autosize=1;strokeColor=none;fillColor=none;" vertex="1" parent="1">
          <mxGeometry x="800" y="558" width="60" height="30" as="geometry" />
        </mxCell>
        <mxCell id="9uxN7gj2U9bfbxpVHBOl-62" value="category" style="whiteSpace=wrap;html=1;" vertex="1" parent="1">
          <mxGeometry x="920" y="80" width="120" height="60" as="geometry" />
        </mxCell>
        <mxCell id="9uxN7gj2U9bfbxpVHBOl-63" value="category_title" style="ellipse;whiteSpace=wrap;html=1;" vertex="1" parent="1">
          <mxGeometry x="865" y="-50" width="80" height="50" as="geometry" />
        </mxCell>
        <mxCell id="9uxN7gj2U9bfbxpVHBOl-64" value="" style="endArrow=none;html=1;rounded=0;entryX=0.6;entryY=1.004;entryDx=0;entryDy=0;entryPerimeter=0;" edge="1" target="9uxN7gj2U9bfbxpVHBOl-63" parent="1">
          <mxGeometry width="50" height="50" relative="1" as="geometry">
            <mxPoint x="945" y="80" as="sourcePoint" />
            <mxPoint x="675" y="80" as="targetPoint" />
          </mxGeometry>
        </mxCell>
        <mxCell id="9uxN7gj2U9bfbxpVHBOl-65" value="category_id" style="ellipse;whiteSpace=wrap;html=1;" vertex="1" parent="1">
          <mxGeometry x="990" y="-50" width="80" height="50" as="geometry" />
        </mxCell>
        <mxCell id="9uxN7gj2U9bfbxpVHBOl-66" value="" style="endArrow=none;html=1;rounded=0;entryX=0.31;entryY=0.956;entryDx=0;entryDy=0;entryPerimeter=0;exitX=0.5;exitY=0;exitDx=0;exitDy=0;" edge="1" target="9uxN7gj2U9bfbxpVHBOl-65" parent="1">
          <mxGeometry width="50" height="50" relative="1" as="geometry">
            <mxPoint x="950" y="80" as="sourcePoint" />
            <mxPoint x="780" y="80" as="targetPoint" />
          </mxGeometry>
        </mxCell>
        <mxCell id="9uxN7gj2U9bfbxpVHBOl-67" value="contains" style="rhombus;whiteSpace=wrap;html=1;" vertex="1" parent="1">
          <mxGeometry x="940" y="180" width="80" height="100" as="geometry" />
        </mxCell>
        <mxCell id="9uxN7gj2U9bfbxpVHBOl-68" value="" style="endArrow=none;html=1;rounded=0;exitX=1;exitY=0;exitDx=0;exitDy=0;entryX=0.5;entryY=1;entryDx=0;entryDy=0;" edge="1" parent="1" source="9uxN7gj2U9bfbxpVHBOl-13" target="9uxN7gj2U9bfbxpVHBOl-67">
          <mxGeometry width="50" height="50" relative="1" as="geometry">
            <mxPoint x="680" y="240" as="sourcePoint" />
            <mxPoint x="730" y="190" as="targetPoint" />
          </mxGeometry>
        </mxCell>
        <mxCell id="9uxN7gj2U9bfbxpVHBOl-70" value="" style="endArrow=none;html=1;rounded=0;exitX=0.5;exitY=0;exitDx=0;exitDy=0;entryX=0.5;entryY=1;entryDx=0;entryDy=0;" edge="1" parent="1" source="9uxN7gj2U9bfbxpVHBOl-67" target="9uxN7gj2U9bfbxpVHBOl-62">
          <mxGeometry width="50" height="50" relative="1" as="geometry">
            <mxPoint x="680" y="240" as="sourcePoint" />
            <mxPoint x="980" y="160" as="targetPoint" />
          </mxGeometry>
        </mxCell>
        <mxCell id="9uxN7gj2U9bfbxpVHBOl-71" value="1" style="text;html=1;align=center;verticalAlign=middle;resizable=0;points=[];autosize=1;strokeColor=none;fillColor=none;" vertex="1" parent="1">
          <mxGeometry x="975" y="148" width="30" height="30" as="geometry" />
        </mxCell>
        <mxCell id="9uxN7gj2U9bfbxpVHBOl-72" value="many/n" style="text;html=1;align=center;verticalAlign=middle;resizable=0;points=[];autosize=1;strokeColor=none;fillColor=none;" vertex="1" parent="1">
          <mxGeometry x="810" y="258" width="60" height="30" as="geometry" />
        </mxCell>
        <mxCell id="9uxN7gj2U9bfbxpVHBOl-73" value="category_id" style="ellipse;whiteSpace=wrap;html=1;fillColor=#f8cecc;strokeColor=#b85450;" vertex="1" parent="1">
          <mxGeometry x="620" y="98" width="80" height="50" as="geometry" />
        </mxCell>
        <mxCell id="9uxN7gj2U9bfbxpVHBOl-74" value="" style="endArrow=none;html=1;rounded=0;entryX=0.5;entryY=1;entryDx=0;entryDy=0;" edge="1" target="9uxN7gj2U9bfbxpVHBOl-73" parent="1">
          <mxGeometry width="50" height="50" relative="1" as="geometry">
            <mxPoint x="630" y="280" as="sourcePoint" />
            <mxPoint x="410" y="228" as="targetPoint" />
          </mxGeometry>
        </mxCell>
        <mxCell id="9uxN7gj2U9bfbxpVHBOl-75" value="Role" style="whiteSpace=wrap;html=1;" vertex="1" parent="1">
          <mxGeometry x="-190" y="170" width="120" height="60" as="geometry" />
        </mxCell>
        <mxCell id="9uxN7gj2U9bfbxpVHBOl-78" value="" style="endArrow=none;html=1;rounded=0;entryX=0.5;entryY=1;entryDx=0;entryDy=0;exitX=0.25;exitY=0;exitDx=0;exitDy=0;" edge="1" target="9uxN7gj2U9bfbxpVHBOl-79" parent="1">
          <mxGeometry width="50" height="50" relative="1" as="geometry">
            <mxPoint x="-150" y="178" as="sourcePoint" />
            <mxPoint x="230" y="268" as="targetPoint" />
            <Array as="points" />
          </mxGeometry>
        </mxCell>
        <mxCell id="9uxN7gj2U9bfbxpVHBOl-79" value="Email/Username" style="ellipse;whiteSpace=wrap;html=1;" vertex="1" parent="1">
          <mxGeometry x="-130" y="48" width="100" height="50" as="geometry" />
        </mxCell>
        <mxCell id="9uxN7gj2U9bfbxpVHBOl-80" value="role_type" style="ellipse;whiteSpace=wrap;html=1;" vertex="1" parent="1">
          <mxGeometry x="-230" y="45" width="90" height="50" as="geometry" />
        </mxCell>
        <mxCell id="9uxN7gj2U9bfbxpVHBOl-81" value="" style="endArrow=none;html=1;rounded=0;entryX=0.5;entryY=1;entryDx=0;entryDy=0;exitX=0.25;exitY=0;exitDx=0;exitDy=0;" edge="1" target="9uxN7gj2U9bfbxpVHBOl-80" parent="1">
          <mxGeometry width="50" height="50" relative="1" as="geometry">
            <mxPoint x="-150" y="175" as="sourcePoint" />
            <mxPoint x="140" y="265" as="targetPoint" />
            <Array as="points" />
          </mxGeometry>
        </mxCell>
        <mxCell id="9uxN7gj2U9bfbxpVHBOl-85" value="" style="edgeStyle=orthogonalEdgeStyle;rounded=0;orthogonalLoop=1;jettySize=auto;html=1;" edge="1" parent="1" source="9uxN7gj2U9bfbxpVHBOl-82" target="9uxN7gj2U9bfbxpVHBOl-75">
          <mxGeometry relative="1" as="geometry" />
        </mxCell>
        <mxCell id="9uxN7gj2U9bfbxpVHBOl-82" value="has" style="rhombus;whiteSpace=wrap;html=1;" vertex="1" parent="1">
          <mxGeometry x="20" y="160" width="80" height="80" as="geometry" />
        </mxCell>
        <mxCell id="9uxN7gj2U9bfbxpVHBOl-83" value="" style="endArrow=classic;html=1;rounded=0;entryX=1;entryY=0.5;entryDx=0;entryDy=0;exitX=-0.027;exitY=0.377;exitDx=0;exitDy=0;exitPerimeter=0;" edge="1" parent="1" source="9uxN7gj2U9bfbxpVHBOl-1" target="9uxN7gj2U9bfbxpVHBOl-82">
          <mxGeometry width="50" height="50" relative="1" as="geometry">
            <mxPoint x="60" y="240" as="sourcePoint" />
            <mxPoint x="110" y="190" as="targetPoint" />
          </mxGeometry>
        </mxCell>
        <mxCell id="9uxN7gj2U9bfbxpVHBOl-86" value="1" style="text;html=1;align=center;verticalAlign=middle;resizable=0;points=[];autosize=1;strokeColor=none;fillColor=none;" vertex="1" parent="1">
          <mxGeometry x="-35" y="178" width="30" height="30" as="geometry" />
        </mxCell>
        <mxCell id="9uxN7gj2U9bfbxpVHBOl-87" value="1" style="text;html=1;align=center;verticalAlign=middle;resizable=0;points=[];autosize=1;strokeColor=none;fillColor=none;" vertex="1" parent="1">
          <mxGeometry x="145" y="168" width="30" height="30" as="geometry" />
        </mxCell>
        <mxCell id="9uxN7gj2U9bfbxpVHBOl-88" value="Role_id" style="ellipse;whiteSpace=wrap;html=1;" vertex="1" parent="1">
          <mxGeometry x="-410" y="118" width="90" height="50" as="geometry" />
        </mxCell>
        <mxCell id="9uxN7gj2U9bfbxpVHBOl-89" value="" style="endArrow=none;html=1;rounded=0;entryX=0.5;entryY=1;entryDx=0;entryDy=0;exitX=0;exitY=0.5;exitDx=0;exitDy=0;" edge="1" target="9uxN7gj2U9bfbxpVHBOl-88" parent="1" source="9uxN7gj2U9bfbxpVHBOl-75">
          <mxGeometry width="50" height="50" relative="1" as="geometry">
            <mxPoint x="-200" y="200" as="sourcePoint" />
            <mxPoint x="-40" y="338" as="targetPoint" />
            <Array as="points" />
          </mxGeometry>
        </mxCell>
      </root>
    </mxGraphModel>
  </diagram>
</mxfile>
